<?xml version="1.0" encoding="UTF-8" standalone="no"?>
<!DOCTYPE svg PUBLIC "-//W3C//DTD SVG 1.1//EN"
 "http://www.w3.org/Graphics/SVG/1.1/DTD/svg11.dtd">
<!-- Generated by graphviz version 2.47.3 (20210619.1520)
 -->
<!-- Title: dependencies Pages: 1 -->
<svg width="2228pt" height="247pt"
 viewBox="0.00 0.00 2228.00 246.80" xmlns="http://www.w3.org/2000/svg" xmlns:xlink="http://www.w3.org/1999/xlink">
<g id="graph0" class="graph" transform="scale(1 1) rotate(0) translate(4 242.8)">
<title>dependencies</title>
<polygon fill="white" stroke="transparent" points="-4,4 -4,-242.8 2224,-242.8 2224,4 -4,4"/>
<text text-anchor="middle" x="1110" y="-8.2" font-family="sans-serif" font-size="14.00">dependencies</text>
<g id="clust1" class="cluster">
<title>cluster_AppModule</title>
<polygon fill="none" stroke="black" stroke-dasharray="1,5" points="8,-32.8 8,-230.8 2212,-230.8 2212,-32.8 8,-32.8"/>
</g>
<g id="clust2" class="cluster">
<title>cluster_AppModule_declarations</title>
<polygon fill="none" stroke="black" points="168,-40.8 168,-92.8 2204,-92.8 2204,-40.8 168,-40.8"/>
</g>
<g id="clust15" class="cluster">
<title>cluster_AppModule_imports</title>
<polygon fill="none" stroke="black" points="16,-40.8 16,-92.8 160,-92.8 160,-40.8 16,-40.8"/>
</g>
<g id="clust17" class="cluster">
<title>cluster_AppModule_bootstrap</title>
<polygon fill="none" stroke="black" points="1099,-170.8 1099,-222.8 1223,-222.8 1223,-170.8 1099,-170.8"/>
</g>
<!-- AppComponent -->
<g id="node1" class="node">
<title>AppComponent</title>
<polygon fill="#ffffb3" stroke="black" points="2195.94,-84.8 2090.06,-84.8 2090.06,-48.8 2195.94,-48.8 2195.94,-84.8"/>
<text text-anchor="middle" x="2143" y="-62.6" font-family="Times,serif" font-size="14.00">AppComponent</text>
</g>
<!-- AppModule -->
<g id="node13" class="node">
<title>AppModule</title>
<polygon fill="#8dd3c7" stroke="black" points="1202.66,-149.8 1199.66,-153.8 1178.66,-153.8 1175.66,-149.8 1119.34,-149.8 1119.34,-113.8 1202.66,-113.8 1202.66,-149.8"/>
<text text-anchor="middle" x="1161" y="-127.6" font-family="Times,serif" font-size="14.00">AppModule</text>
</g>
<!-- AppComponent&#45;&gt;AppModule -->
<g id="edge1" class="edge">
<title>AppComponent&#45;&gt;AppModule</title>
<path fill="none" stroke="black" d="M2143,-84.89C2143,-107.93 2143,-144.8 2143,-144.8 2143,-144.8 1212.88,-144.8 1212.88,-144.8"/>
<polygon fill="black" stroke="black" points="1212.88,-141.3 1202.88,-144.8 1212.88,-148.3 1212.88,-141.3"/>
</g>
<!-- EditProfileComponent -->
<g id="node2" class="node">
<title>EditProfileComponent</title>
<polygon fill="#ffffb3" stroke="black" points="2072.27,-84.8 1929.73,-84.8 1929.73,-48.8 2072.27,-48.8 2072.27,-84.8"/>
<text text-anchor="middle" x="2001" y="-62.6" font-family="Times,serif" font-size="14.00">EditProfileComponent</text>
</g>
<!-- EditProfileComponent&#45;&gt;AppModule -->
<g id="edge2" class="edge">
<title>EditProfileComponent&#45;&gt;AppModule</title>
<path fill="none" stroke="black" d="M2001,-84.84C2001,-106.46 2001,-139.8 2001,-139.8 2001,-139.8 1212.94,-139.8 1212.94,-139.8"/>
<polygon fill="black" stroke="black" points="1212.94,-136.3 1202.94,-139.8 1212.94,-143.3 1212.94,-136.3"/>
</g>
<!-- FavoritesComponent -->
<g id="node3" class="node">
<title>FavoritesComponent</title>
<polygon fill="#ffffb3" stroke="black" points="1911.93,-84.8 1778.07,-84.8 1778.07,-48.8 1911.93,-48.8 1911.93,-84.8"/>
<text text-anchor="middle" x="1845" y="-62.6" font-family="Times,serif" font-size="14.00">FavoritesComponent</text>
</g>
<!-- FavoritesComponent&#45;&gt;AppModule -->
<g id="edge3" class="edge">
<title>FavoritesComponent&#45;&gt;AppModule</title>
<path fill="none" stroke="black" d="M1845,-85.02C1845,-105.17 1845,-134.8 1845,-134.8 1845,-134.8 1212.76,-134.8 1212.76,-134.8"/>
<polygon fill="black" stroke="black" points="1212.76,-131.3 1202.76,-134.8 1212.76,-138.3 1212.76,-131.3"/>
</g>
<!-- MovieCardComponent -->
<g id="node4" class="node">
<title>MovieCardComponent</title>
<polygon fill="#ffffb3" stroke="black" points="1760.59,-84.8 1615.41,-84.8 1615.41,-48.8 1760.59,-48.8 1760.59,-84.8"/>
<text text-anchor="middle" x="1688" y="-62.6" font-family="Times,serif" font-size="14.00">MovieCardComponent</text>
</g>
<!-- MovieCardComponent&#45;&gt;AppModule -->
<g id="edge4" class="edge">
<title>MovieCardComponent&#45;&gt;AppModule</title>
<path fill="none" stroke="black" d="M1688,-85.02C1688,-103.63 1688,-129.8 1688,-129.8 1688,-129.8 1212.79,-129.8 1212.79,-129.8"/>
<polygon fill="black" stroke="black" points="1212.79,-126.3 1202.79,-129.8 1212.79,-133.3 1212.79,-126.3"/>
</g>
<!-- MovieDirectorComponent -->
<g id="node5" class="node">
<title>MovieDirectorComponent</title>
<polygon fill="#ffffb3" stroke="black" points="1597.02,-84.8 1432.98,-84.8 1432.98,-48.8 1597.02,-48.8 1597.02,-84.8"/>
<text text-anchor="middle" x="1515" y="-62.6" font-family="Times,serif" font-size="14.00">MovieDirectorComponent</text>
</g>
<!-- MovieDirectorComponent&#45;&gt;AppModule -->
<g id="edge5" class="edge">
<title>MovieDirectorComponent&#45;&gt;AppModule</title>
<path fill="none" stroke="black" d="M1515,-84.83C1515,-101.86 1515,-124.8 1515,-124.8 1515,-124.8 1213,-124.8 1213,-124.8"/>
<polygon fill="black" stroke="black" points="1213,-121.3 1203,-124.8 1213,-128.3 1213,-121.3"/>
</g>
<!-- MovieGenreComponent -->
<g id="node6" class="node">
<title>MovieGenreComponent</title>
<polygon fill="#ffffb3" stroke="black" points="1415.08,-84.8 1262.92,-84.8 1262.92,-48.8 1415.08,-48.8 1415.08,-84.8"/>
<text text-anchor="middle" x="1339" y="-62.6" font-family="Times,serif" font-size="14.00">MovieGenreComponent</text>
</g>
<!-- MovieGenreComponent&#45;&gt;AppModule -->
<g id="edge6" class="edge">
<title>MovieGenreComponent&#45;&gt;AppModule</title>
<path fill="none" stroke="black" d="M1339,-85.04C1339,-100.37 1339,-119.8 1339,-119.8 1339,-119.8 1212.73,-119.8 1212.73,-119.8"/>
<polygon fill="black" stroke="black" points="1212.73,-116.3 1202.73,-119.8 1212.73,-123.3 1212.73,-116.3"/>
</g>
<!-- MovieSynopsisComponent -->
<g id="node7" class="node">
<title>MovieSynopsisComponent</title>
<polygon fill="#ffffb3" stroke="black" points="1245.45,-84.8 1076.55,-84.8 1076.55,-48.8 1245.45,-48.8 1245.45,-84.8"/>
<text text-anchor="middle" x="1161" y="-62.6" font-family="Times,serif" font-size="14.00">MovieSynopsisComponent</text>
</g>
<!-- MovieSynopsisComponent&#45;&gt;AppModule -->
<g id="edge7" class="edge">
<title>MovieSynopsisComponent&#45;&gt;AppModule</title>
<path fill="none" stroke="black" d="M1161,-84.91C1161,-84.91 1161,-103.79 1161,-103.79"/>
<polygon fill="black" stroke="black" points="1157.5,-103.79 1161,-113.79 1164.5,-103.79 1157.5,-103.79"/>
</g>
<!-- NavBarComponent -->
<g id="node8" class="node">
<title>NavBarComponent</title>
<polygon fill="#ffffb3" stroke="black" points="1058.37,-84.8 933.63,-84.8 933.63,-48.8 1058.37,-48.8 1058.37,-84.8"/>
<text text-anchor="middle" x="996" y="-62.6" font-family="Times,serif" font-size="14.00">NavBarComponent</text>
</g>
<!-- NavBarComponent&#45;&gt;AppModule -->
<g id="edge8" class="edge">
<title>NavBarComponent&#45;&gt;AppModule</title>
<path fill="none" stroke="black" d="M996,-85.04C996,-100.37 996,-119.8 996,-119.8 996,-119.8 1108.94,-119.8 1108.94,-119.8"/>
<polygon fill="black" stroke="black" points="1108.94,-123.3 1118.94,-119.8 1108.94,-116.3 1108.94,-123.3"/>
</g>
<!-- UserLoginFormComponent -->
<g id="node9" class="node">
<title>UserLoginFormComponent</title>
<polygon fill="#ffffb3" stroke="black" points="915.54,-84.8 744.46,-84.8 744.46,-48.8 915.54,-48.8 915.54,-84.8"/>
<text text-anchor="middle" x="830" y="-62.6" font-family="Times,serif" font-size="14.00">UserLoginFormComponent</text>
</g>
<!-- UserLoginFormComponent&#45;&gt;AppModule -->
<g id="edge9" class="edge">
<title>UserLoginFormComponent&#45;&gt;AppModule</title>
<path fill="none" stroke="black" d="M830,-84.83C830,-101.86 830,-124.8 830,-124.8 830,-124.8 1109.08,-124.8 1109.08,-124.8"/>
<polygon fill="black" stroke="black" points="1109.08,-128.3 1119.08,-124.8 1109.08,-121.3 1109.08,-128.3"/>
</g>
<!-- UserProfileComponent -->
<g id="node10" class="node">
<title>UserProfileComponent</title>
<polygon fill="#ffffb3" stroke="black" points="725.86,-84.8 580.14,-84.8 580.14,-48.8 725.86,-48.8 725.86,-84.8"/>
<text text-anchor="middle" x="653" y="-62.6" font-family="Times,serif" font-size="14.00">UserProfileComponent</text>
</g>
<!-- UserProfileComponent&#45;&gt;AppModule -->
<g id="edge10" class="edge">
<title>UserProfileComponent&#45;&gt;AppModule</title>
<path fill="none" stroke="black" d="M653,-85.02C653,-103.63 653,-129.8 653,-129.8 653,-129.8 1109,-129.8 1109,-129.8"/>
<polygon fill="black" stroke="black" points="1109,-133.3 1119,-129.8 1109,-126.3 1109,-133.3"/>
</g>
<!-- UserRegistrationFormComponent -->
<g id="node11" class="node">
<title>UserRegistrationFormComponent</title>
<polygon fill="#ffffb3" stroke="black" points="562.03,-84.8 355.97,-84.8 355.97,-48.8 562.03,-48.8 562.03,-84.8"/>
<text text-anchor="middle" x="459" y="-62.6" font-family="Times,serif" font-size="14.00">UserRegistrationFormComponent</text>
</g>
<!-- UserRegistrationFormComponent&#45;&gt;AppModule -->
<g id="edge11" class="edge">
<title>UserRegistrationFormComponent&#45;&gt;AppModule</title>
<path fill="none" stroke="black" d="M459,-85.02C459,-105.17 459,-134.8 459,-134.8 459,-134.8 1109.19,-134.8 1109.19,-134.8"/>
<polygon fill="black" stroke="black" points="1109.19,-138.3 1119.19,-134.8 1109.19,-131.3 1109.19,-138.3"/>
</g>
<!-- WelcomePageComponent -->
<g id="node12" class="node">
<title>WelcomePageComponent</title>
<polygon fill="#ffffb3" stroke="black" points="338.18,-84.8 175.82,-84.8 175.82,-48.8 338.18,-48.8 338.18,-84.8"/>
<text text-anchor="middle" x="257" y="-62.6" font-family="Times,serif" font-size="14.00">WelcomePageComponent</text>
</g>
<!-- WelcomePageComponent&#45;&gt;AppModule -->
<g id="edge12" class="edge">
<title>WelcomePageComponent&#45;&gt;AppModule</title>
<path fill="none" stroke="black" d="M257,-84.84C257,-106.46 257,-139.8 257,-139.8 257,-139.8 1109.21,-139.8 1109.21,-139.8"/>
<polygon fill="black" stroke="black" points="1109.21,-143.3 1119.21,-139.8 1109.21,-136.3 1109.21,-143.3"/>
</g>
<!-- AppComponent  -->
<g id="node15" class="node">
<title>AppComponent </title>
<polygon fill="#80b1d3" stroke="black" points="1215.44,-214.8 1106.56,-214.8 1106.56,-178.8 1215.44,-178.8 1215.44,-214.8"/>
<text text-anchor="middle" x="1161" y="-192.6" font-family="Times,serif" font-size="14.00">AppComponent </text>
</g>
<!-- AppModule&#45;&gt;AppComponent  -->
<g id="edge14" class="edge">
<title>AppModule&#45;&gt;AppComponent </title>
<path fill="none" stroke="black" stroke-dasharray="1,5" d="M1161,-149.91C1161,-149.91 1161,-168.79 1161,-168.79"/>
<polygon fill="black" stroke="black" points="1157.5,-168.79 1161,-178.79 1164.5,-168.79 1157.5,-168.79"/>
</g>
<!-- AppRoutingModule -->
<g id="node14" class="node">
<title>AppRoutingModule</title>
<polygon fill="#8dd3c7" stroke="black" points="152.27,-84.8 149.27,-88.8 128.27,-88.8 125.27,-84.8 23.73,-84.8 23.73,-48.8 152.27,-48.8 152.27,-84.8"/>
<text text-anchor="middle" x="88" y="-62.6" font-family="Times,serif" font-size="14.00">AppRoutingModule</text>
</g>
<!-- AppRoutingModule&#45;&gt;AppModule -->
<g id="edge13" class="edge">
<title>AppRoutingModule&#45;&gt;AppModule</title>
<path fill="none" stroke="black" d="M88,-84.89C88,-107.93 88,-144.8 88,-144.8 88,-144.8 1109.27,-144.8 1109.27,-144.8"/>
<polygon fill="black" stroke="black" points="1109.27,-148.3 1119.27,-144.8 1109.27,-141.3 1109.27,-148.3"/>
</g>
</g>
</svg>
